<svg id="Layer_1" data-name="Layer 1" xmlns="http://www.w3.org/2000/svg" xmlns:xlink="http://www.w3.org/1999/xlink" width="336.61" height="141.73" viewBox="0 0 336.61 141.73">
  <defs>
    <style>
      .cls-1 {
        fill: none;
      }

      .cls-2 {
        fill: #231f20;
      }

      .cls-3 {
        clip-path: url(#clip-path);
      }

      .cls-4 {
        fill: #ffc20e;
      }
    </style>
    <clipPath id="clip-path" transform="translate(476.21 -118.88)">
      <rect class="cls-1" x="-481.53" y="111.79" width="347.24" height="155.91"/>
    </clipPath>
  </defs>
  <title>Brigade Orchards</title>
  <polygon class="cls-2" points="12.85 55.69 0 55.69 0 53.16 28.45 53.16 28.45 55.69 15.59 55.69 15.59 90.03 12.85 90.03 12.85 55.69"/>
  <polygon class="cls-2" points="34.64 53.16 37.38 53.16 37.38 70.22 60.98 70.22 60.98 53.16 63.72 53.16 63.72 90.03 60.98 90.03 60.98 72.75 37.38 72.75 37.38 90.03 34.64 90.03 34.64 53.16"/>
  <polygon class="cls-2" points="72.55 53.16 98.78 53.16 98.78 55.69 75.28 55.69 75.28 70.17 96.4 70.17 96.4 72.7 75.28 72.7 75.28 87.5 99.04 87.5 99.04 90.03 72.55 90.03 72.55 53.16"/>
  <path class="cls-2" d="M-331.85,196.11l-9.69-21.33-9.74,21.33Zm-10.95-24.33h2.63L-323,208.91h-3l-4.69-10.32h-21.75l-4.69,10.32H-360Z" transform="translate(476.21 -118.88)"/>
  <g class="cls-3">
    <path class="cls-2" d="M-302.16,191.16c6.16,0,10.74-3.11,10.74-8.43v-.11c0-5-3.89-8.05-10.58-8.05h-12.59v16.59ZM-317.33,172h15.48c4.53,0,8.17,1.42,10.38,3.63a9.73,9.73,0,0,1,2.79,6.85v.1c0,6.17-4.58,9.7-10.8,10.54l12.17,15.75h-3.48l-11.74-15.27h-12.06v15.27h-2.74Z" transform="translate(476.21 -118.88)"/>
    <path class="cls-2" d="M-283,190.58v-.11c0-10.42,7.79-19.07,18.43-19.07,6.59,0,10.54,2.43,14.33,5.91l-1.95,2c-3.21-3.11-6.9-5.43-12.43-5.43-8.85,0-15.54,7.22-15.54,16.49v.1c0,9.33,6.8,16.6,15.59,16.6,5.32,0,9-2.06,12.7-5.75l1.84,1.8c-3.9,3.84-8.11,6.42-14.64,6.42-10.54,0-18.33-8.38-18.33-19" transform="translate(476.21 -118.88)"/>
    <path class="cls-2" d="M-219.67,196.11l-9.69-21.33-9.74,21.33Zm-11-24.33H-228l17.17,37.13h-3l-4.69-10.32h-21.75l-4.69,10.32h-2.85Z" transform="translate(476.21 -118.88)"/>
    <path class="cls-2" d="M-202.41,174.57v31.81h9.53c10.27,0,16.75-7,16.75-15.8v-.11c0-8.74-6.48-15.9-16.75-15.9Zm-2.74-2.53h12.27c11.59,0,19.59,8,19.59,18.33v.1c0,10.38-8,18.44-19.59,18.44h-12.27Z" transform="translate(476.21 -118.88)"/>
    <polygon class="cls-2" points="310.13 53.16 336.35 53.16 336.35 55.69 312.86 55.69 312.86 70.17 333.98 70.17 333.98 72.7 312.86 72.7 312.86 87.5 336.61 87.5 336.61 90.03 310.13 90.03 310.13 53.16"/>
    <path class="cls-4" d="M-245.35,118.88a9.91,9.91,0,0,0-9.9,9.9,9.91,9.91,0,0,0,9.9,9.9,9.91,9.91,0,0,0,9.89-9.9,9.91,9.91,0,0,0-9.89-9.9" transform="translate(476.21 -118.88)"/>
    <path class="cls-2" d="M-358.19,150.45a5.39,5.39,0,0,0,.51-2.46,4.51,4.51,0,0,0-.4-1.94,4.55,4.55,0,0,0-1-1.36,4.53,4.53,0,0,0-1.24-.84,6.56,6.56,0,0,0-1.16-.41l-.52-.11.51-.13a3.14,3.14,0,0,0,.82-.36,3.91,3.91,0,0,0,.91-.76,4.7,4.7,0,0,0,.75-1.17,3.7,3.7,0,0,0,.32-1.57,5.24,5.24,0,0,0-.33-1.83A3.89,3.89,0,0,0-360.1,136a5.89,5.89,0,0,0-2-1.08,9.42,9.42,0,0,0-3-.4h-7v18.84h7a14.56,14.56,0,0,0,3.08-.3,6.49,6.49,0,0,0,2.3-.93,4.52,4.52,0,0,0,1.45-1.65m-9.91-12.86h2.67a4.47,4.47,0,0,1,1,.1,2.6,2.6,0,0,1,.89.36,2,2,0,0,1,.64.7,2.34,2.34,0,0,1,.24,1.11,2.27,2.27,0,0,1-.24,1.08,2,2,0,0,1-.63.7,2.63,2.63,0,0,1-.87.37,4.07,4.07,0,0,1-1,.12h-2.67Zm5.94,11.47a2.49,2.49,0,0,1-.86.79,3.44,3.44,0,0,1-1.1.34,8.26,8.26,0,0,1-1.05.07h-2.93V145h2.93a6.19,6.19,0,0,1,1.08.1,3.43,3.43,0,0,1,1.1.39,2.41,2.41,0,0,1,.85.8,2.43,2.43,0,0,1,.33,1.33,2.51,2.51,0,0,1-.35,1.41" transform="translate(476.21 -118.88)"/>
    <path class="cls-2" d="M-343,153.33h4.34l-4.2-7.58.17-.09a5.85,5.85,0,0,0,2.24-2.17,6.12,6.12,0,0,0,.8-3.17,6.35,6.35,0,0,0-.41-2.27,4.94,4.94,0,0,0-1.22-1.85,6,6,0,0,0-2.05-1.25,8.41,8.41,0,0,0-2.88-.46h-6.95v18.84h3.85v-7.06h2.73Zm-6.31-15.65h2.87a2.74,2.74,0,0,1,2,.75,2.7,2.7,0,0,1,.75,2,2.75,2.75,0,0,1-.74,1.95,2.75,2.75,0,0,1-2.05.77h-2.87Z" transform="translate(476.21 -118.88)"/>
    <rect class="cls-2" x="141.68" y="15.61" width="3.97" height="18.85"/>
    <path class="cls-2" d="M-308.29,143.14h-7v3.13h3.41V149l-.08.06a5.09,5.09,0,0,1-1.76.91,8.13,8.13,0,0,1-2.16.28,6.14,6.14,0,0,1-2.37-.45,5.55,5.55,0,0,1-1.89-1.26,5.73,5.73,0,0,1-1.26-2,7.31,7.31,0,0,1-.44-2.58,7.86,7.86,0,0,1,.38-2.45,5.89,5.89,0,0,1,1.14-2,5.42,5.42,0,0,1,1.82-1.38,5.6,5.6,0,0,1,2.44-.51,5.18,5.18,0,0,1,2.83.73,8.65,8.65,0,0,1,1.95,1.66l2.66-2.53a8.75,8.75,0,0,0-3.1-2.51,10.29,10.29,0,0,0-4.51-.94,10.13,10.13,0,0,0-4,.76,9.34,9.34,0,0,0-3.08,2.11,9.21,9.21,0,0,0-2,3.15A10.52,10.52,0,0,0-326,144a11.62,11.62,0,0,0,.66,4,8.54,8.54,0,0,0,1.94,3.1,8.82,8.82,0,0,0,3.09,2,11.25,11.25,0,0,0,4.15.73,13.58,13.58,0,0,0,4.5-.7,10.87,10.87,0,0,0,3.38-1.91Z" transform="translate(476.21 -118.88)"/>
    <path class="cls-2" d="M-292.32,148.92l1.47,4.41h4.17l-6.72-18.84h-4.81l-6.87,18.84h4.24l1.46-4.41Zm-3.51-10.57,2.51,7.58h-5.06Z" transform="translate(476.21 -118.88)"/>
    <path class="cls-2" d="M-266.39,148.1a10.26,10.26,0,0,0,.76-4.09,11.21,11.21,0,0,0-.75-4.28,7.66,7.66,0,0,0-2.08-2.95,8.62,8.62,0,0,0-3.19-1.72,13.77,13.77,0,0,0-4.05-.57h-7.07v18.84h7a13.39,13.39,0,0,0,4.05-.58,8.67,8.67,0,0,0,3.19-1.75,8.27,8.27,0,0,0,2.1-2.9m-5,.19a6.32,6.32,0,0,1-4.57,1.56h-2.85V137.94H-276a7.82,7.82,0,0,1,2.75.43,5,5,0,0,1,1.93,1.23,5,5,0,0,1,1.14,1.92,7.89,7.89,0,0,1,.37,2.46,5.76,5.76,0,0,1-1.62,4.31" transform="translate(476.21 -118.88)"/>
    <polygon class="cls-2" points="219.24 31 219.24 26.47 225.13 26.47 226 23.16 219.24 23.16 219.24 19.03 227.09 19.03 227.97 15.61 215.27 15.61 215.27 34.45 227.09 34.45 227.97 31 219.24 31"/>
    <path class="cls-2" d="M-429.39,223.46l-6.38,15.88h2.26l1.41-3.52h7.9l1.41,3.52h2.26l-6.4-15.88Zm-2.14,10.59,3.38-8.54,3.36,8.54Z" transform="translate(476.21 -118.88)"/>
    <polygon class="cls-2" points="55.06 106.34 60.09 106.34 60.09 120.46 62.06 120.46 62.06 106.34 67.11 106.34 67.11 104.58 55.06 104.58 55.06 106.34"/>
    <path class="cls-2" d="M-389.43,232.48a3.87,3.87,0,0,0-1-.88,3,3,0,0,0-1.21-.45,3.4,3.4,0,0,0,1.05-.42,3.21,3.21,0,0,0,.89-.76,3.39,3.39,0,0,0,.62-1.08,4,4,0,0,0,.23-1.38,4.34,4.34,0,0,0-.31-1.63,3.75,3.75,0,0,0-.88-1.29,4.13,4.13,0,0,0-1.4-.83,5.5,5.5,0,0,0-1.86-.3h-7.07v15.88h7.24a5.5,5.5,0,0,0,1.93-.31,4,4,0,0,0,1.44-.88,3.74,3.74,0,0,0,.91-1.36,4.59,4.59,0,0,0,.31-1.73,3.88,3.88,0,0,0-.25-1.39,4.47,4.47,0,0,0-.67-1.19m-8.94-7.26h4.77a2.64,2.64,0,0,1,2,.75,2.6,2.6,0,0,1,.69,1.82,2.53,2.53,0,0,1-.69,1.82,2.66,2.66,0,0,1-2,.73h-4.77Zm7,11.63a3,3,0,0,1-2.18.73h-4.86V232.1h4.86a3.41,3.41,0,0,1,1.29.23,2.81,2.81,0,0,1,.91.59,2.5,2.5,0,0,1,.56.87,2.87,2.87,0,0,1,.19,1.05,2.63,2.63,0,0,1-.77,2" transform="translate(476.21 -118.88)"/>
    <path class="cls-2" d="M-376.57,232.46a4.3,4.3,0,0,0,1.32-.9,4.07,4.07,0,0,0,.9-1.41,4.92,4.92,0,0,0,.34-1.9,5.21,5.21,0,0,0-.37-2,4.34,4.34,0,0,0-1-1.51,4.66,4.66,0,0,0-1.57-1,5.79,5.79,0,0,0-2-.33h-6.38v15.88h2V233h3.16l4.05,6.31h2.33l-4.28-6.47a5,5,0,0,0,1.56-.41m-6.82-1.17v-6.07h4.16a3.16,3.16,0,0,1,2.3.84,2.88,2.88,0,0,1,.87,2.19,2.93,2.93,0,0,1-.87,2.2,3.16,3.16,0,0,1-2.3.84Z" transform="translate(476.21 -118.88)"/>
    <rect class="cls-2" x="105.32" y="104.58" width="1.97" height="15.88"/>
    <path class="cls-2" d="M-351.44,231.17h-7.43v1.77h5.45v3.24a5.46,5.46,0,0,1-.73.59,5.82,5.82,0,0,1-1,.56,5.94,5.94,0,0,1-1.19.4,5.37,5.37,0,0,1-1.35.16,6.06,6.06,0,0,1-2.43-.49,5.74,5.74,0,0,1-1.94-1.35,6,6,0,0,1-1.29-2,7.11,7.11,0,0,1-.46-2.6,7,7,0,0,1,.46-2.6,6.12,6.12,0,0,1,1.29-2,5.69,5.69,0,0,1,1.94-1.33,6.06,6.06,0,0,1,2.43-.48,5.69,5.69,0,0,1,2.63.61,5.68,5.68,0,0,1,2,1.58l1.57-1a9,9,0,0,0-2.56-2.14,7.31,7.31,0,0,0-3.6-.83,8.6,8.6,0,0,0-3.18.59,8.11,8.11,0,0,0-2.6,1.67,8,8,0,0,0-1.75,2.58,8.54,8.54,0,0,0-.64,3.37,8.51,8.51,0,0,0,.64,3.37,8,8,0,0,0,1.75,2.6,7.79,7.79,0,0,0,2.6,1.67,8.41,8.41,0,0,0,3.18.6,8.12,8.12,0,0,0,3.53-.75,8.47,8.47,0,0,0,2.71-2Z" transform="translate(476.21 -118.88)"/>
    <path class="cls-2" d="M-349.95,239.34h2.27l1.4-3.52h7.9l1.41,3.52h2.26l-6.4-15.88h-2.45Zm11-5.29h-6.74l3.38-8.54Z" transform="translate(476.21 -118.88)"/>
    <path class="cls-2" d="M-323.86,224.07a8.7,8.7,0,0,0-3.35-.61h-5.43v15.88h5.43a8.7,8.7,0,0,0,3.35-.61,7.7,7.7,0,0,0,2.57-1.66,7.58,7.58,0,0,0,1.64-2.52,8.28,8.28,0,0,0,.58-3.14,8.35,8.35,0,0,0-.58-3.14,7.58,7.58,0,0,0-1.64-2.52,7.45,7.45,0,0,0-2.57-1.68m2.34,9.75a5.72,5.72,0,0,1-1.19,2,5.72,5.72,0,0,1-1.92,1.32,6.52,6.52,0,0,1-2.58.49h-3.45V225.22h3.45a6.59,6.59,0,0,1,2.6.49A5.72,5.72,0,0,1-322.7,227a5.75,5.75,0,0,1,1.18,2,7.09,7.09,0,0,1,.4,2.41,7,7,0,0,1-.4,2.41" transform="translate(476.21 -118.88)"/>
    <polygon class="cls-2" points="170.64 106.34 170.64 104.58 160.24 104.58 160.24 120.46 170.64 120.46 170.64 118.7 162.22 118.7 162.22 113.22 170.47 113.22 170.47 111.46 162.22 111.46 162.22 106.34 170.64 106.34"/>
    <path class="cls-2" d="M-281.17,231.41a9.12,9.12,0,0,0-.57-3.26,7.9,7.9,0,0,0-1.61-2.61,7.31,7.31,0,0,0-2.49-1.72,8.17,8.17,0,0,0-3.21-.62,8.09,8.09,0,0,0-3.21.62,7.31,7.31,0,0,0-2.49,1.72,7.9,7.9,0,0,0-1.61,2.61,9.12,9.12,0,0,0-.57,3.26,9.08,9.08,0,0,0,.57,3.26,7.9,7.9,0,0,0,1.61,2.61,7.33,7.33,0,0,0,2.49,1.73,8.09,8.09,0,0,0,3.21.61,8.16,8.16,0,0,0,3.21-.61,7.33,7.33,0,0,0,2.49-1.73,7.9,7.9,0,0,0,1.61-2.61,9.08,9.08,0,0,0,.57-3.26m-2.46,2.56a6.36,6.36,0,0,1-1.18,2.05,5.42,5.42,0,0,1-1.84,1.36,5.78,5.78,0,0,1-2.4.48,5.94,5.94,0,0,1-2.42-.48,5.42,5.42,0,0,1-1.84-1.36,6,6,0,0,1-1.17-2.05,7.85,7.85,0,0,1-.4-2.56,7.91,7.91,0,0,1,.4-2.57,6,6,0,0,1,1.17-2.05,5.36,5.36,0,0,1,1.84-1.34A5.78,5.78,0,0,1-289,225a5.63,5.63,0,0,1,2.4.49,5.36,5.36,0,0,1,1.84,1.34,6.36,6.36,0,0,1,1.18,2.05,7.91,7.91,0,0,1,.41,2.57,7.85,7.85,0,0,1-.41,2.56" transform="translate(476.21 -118.88)"/>
    <path class="cls-2" d="M-268,231.56a3.93,3.93,0,0,0,.9-1.41,4.92,4.92,0,0,0,.34-1.9,5,5,0,0,0-.37-2,4.34,4.34,0,0,0-1-1.51,4.57,4.57,0,0,0-1.57-1,5.79,5.79,0,0,0-2-.33h-6.38v15.88h2V233h3.16l4.05,6.31h2.34l-4.29-6.47a5,5,0,0,0,1.56-.41,4.3,4.3,0,0,0,1.32-.9m-4-.27h-4.16v-6.07h4.16a3.16,3.16,0,0,1,2.3.84,2.88,2.88,0,0,1,.87,2.19,2.93,2.93,0,0,1-.87,2.2,3.16,3.16,0,0,1-2.3.84" transform="translate(476.21 -118.88)"/>
    <path class="cls-2" d="M-253.57,237.22a5.08,5.08,0,0,1-2.51.65,6.13,6.13,0,0,1-2.43-.48,5.82,5.82,0,0,1-1.94-1.34,5.85,5.85,0,0,1-1.28-2,7.11,7.11,0,0,1-.47-2.6,7,7,0,0,1,.47-2.6,5.94,5.94,0,0,1,1.28-2,5.94,5.94,0,0,1,1.94-1.33,6.13,6.13,0,0,1,2.43-.48,5,5,0,0,1,2.51.66,5.48,5.48,0,0,1,1.85,1.65l1.66-.93a9,9,0,0,0-1.08-1.23,7.17,7.17,0,0,0-1.36-1,7,7,0,0,0-1.64-.66,7.47,7.47,0,0,0-1.94-.24,8.67,8.67,0,0,0-3.2.59,8,8,0,0,0-2.6,1.68,8,8,0,0,0-1.74,2.6,8.6,8.6,0,0,0-.62,3.34,8.65,8.65,0,0,0,.62,3.35,7.82,7.82,0,0,0,1.74,2.59,8,8,0,0,0,2.6,1.68,8.47,8.47,0,0,0,3.2.6,6.7,6.7,0,0,0,3.58-.9,8.44,8.44,0,0,0,2.47-2.25l-1.69-.92a5.4,5.4,0,0,1-1.85,1.66" transform="translate(476.21 -118.88)"/>
    <polygon class="cls-2" points="239.96 111.41 230.68 111.41 230.68 104.58 228.7 104.58 228.7 120.46 230.68 120.46 230.68 113.18 239.96 113.18 239.96 120.46 241.94 120.46 241.94 104.58 239.96 104.58 239.96 111.41"/>
    <path class="cls-2" d="M-225.82,223.46l-6.38,15.88h2.26l1.4-3.52h7.91l1.4,3.52H-217l-6.4-15.88ZM-228,234.05l3.39-8.54,3.35,8.54Z" transform="translate(476.21 -118.88)"/>
    <path class="cls-2" d="M-206.1,232.46a4.3,4.3,0,0,0,1.32-.9,3.93,3.93,0,0,0,.9-1.41,4.92,4.92,0,0,0,.34-1.9,5,5,0,0,0-.37-2,4.45,4.45,0,0,0-1-1.51,4.71,4.71,0,0,0-1.58-1,5.79,5.79,0,0,0-2-.33h-6.37v15.88h2V233h3.17l4,6.31h2.34l-4.29-6.47a5,5,0,0,0,1.56-.41m-6.82-1.17v-6.07h4.17a3.15,3.15,0,0,1,2.29.84,2.88,2.88,0,0,1,.87,2.19,2.93,2.93,0,0,1-.87,2.2,3.15,3.15,0,0,1-2.29.84Z" transform="translate(476.21 -118.88)"/>
    <path class="cls-2" d="M-189.08,225.75a7.31,7.31,0,0,0-2.56-1.68,8.77,8.77,0,0,0-3.35-.61h-5.43v15.88H-195a8.77,8.77,0,0,0,3.35-.61,7.55,7.55,0,0,0,2.56-1.66,7.43,7.43,0,0,0,1.64-2.52,8.28,8.28,0,0,0,.59-3.14,8.35,8.35,0,0,0-.59-3.14,7.43,7.43,0,0,0-1.64-2.52m-.22,8.07a5.72,5.72,0,0,1-1.19,2,5.82,5.82,0,0,1-1.92,1.32,6.59,6.59,0,0,1-2.58.49h-3.46V225.22H-195a6.59,6.59,0,0,1,2.6.49,5.72,5.72,0,0,1,1.91,1.32,5.75,5.75,0,0,1,1.18,2,7.09,7.09,0,0,1,.4,2.41,7,7,0,0,1-.4,2.41" transform="translate(476.21 -118.88)"/>
    <path class="cls-2" d="M-174.56,231.56a7.14,7.14,0,0,0-1.78-.85c-.66-.21-1.32-.41-2-.58l-1.45-.42a6.31,6.31,0,0,1-1.23-.5,2.85,2.85,0,0,1-.85-.7,1.6,1.6,0,0,1-.32-1,2.16,2.16,0,0,1,.91-1.83,3.81,3.81,0,0,1,2.35-.7,7,7,0,0,1,2.5.46,5.31,5.31,0,0,1,2.09,1.45l1.19-1.45a6.73,6.73,0,0,0-2.4-1.65,8.59,8.59,0,0,0-3.24-.57,6.9,6.9,0,0,0-2.17.33,5.21,5.21,0,0,0-1.72.9,4.11,4.11,0,0,0-1.14,1.39,3.84,3.84,0,0,0-.42,1.79,3.48,3.48,0,0,0,.49,1.93,4,4,0,0,0,1.25,1.24,6.79,6.79,0,0,0,1.72.79c.65.2,1.28.38,1.92.54s1,.29,1.51.44a5.64,5.64,0,0,1,1.29.56,2.79,2.79,0,0,1,.89.81,2,2,0,0,1,.33,1.19,2.54,2.54,0,0,1-.19.94,2.26,2.26,0,0,1-.62.88,3.25,3.25,0,0,1-1.14.65,5.11,5.11,0,0,1-1.78.26,6.09,6.09,0,0,1-1.57-.19,6.64,6.64,0,0,1-1.38-.5,6.38,6.38,0,0,1-1.15-.72,6.73,6.73,0,0,1-.9-.85l-1.17,1.5a7.65,7.65,0,0,0,2.5,1.82,8.39,8.39,0,0,0,3.59.7,8,8,0,0,0,2.72-.4,5.27,5.27,0,0,0,1.82-1.06,3.73,3.73,0,0,0,1-1.5,4.81,4.81,0,0,0,.31-1.7,4,4,0,0,0-.5-2.06,4.16,4.16,0,0,0-1.3-1.34" transform="translate(476.21 -118.88)"/>
    <path class="cls-2" d="M-346.48,251.62a5.07,5.07,0,0,0-1.69-1.11,5.85,5.85,0,0,0-2.22-.4H-354v10.5h3.6a5.85,5.85,0,0,0,2.22-.4,5,5,0,0,0,1.69-1.1,4.94,4.94,0,0,0,1.09-1.66,5.69,5.69,0,0,0,.38-2.08,5.66,5.66,0,0,0-.38-2.08,5,5,0,0,0-1.09-1.67m-.15,5.34a3.71,3.71,0,0,1-.79,1.29,3.59,3.59,0,0,1-1.27.87,4.19,4.19,0,0,1-1.7.33h-2.29v-8.18h2.29a4.22,4.22,0,0,1,1.72.33,3.55,3.55,0,0,1,1.26.87,3.79,3.79,0,0,1,.78,1.3,4.67,4.67,0,0,1,.27,1.6,4.58,4.58,0,0,1-.27,1.59" transform="translate(476.21 -118.88)"/>
    <polygon class="cls-2" points="133.25 141.73 140.13 141.73 140.13 140.57 134.56 140.57 134.56 136.95 140.02 136.95 140.02 135.78 134.56 135.78 134.56 132.39 140.13 132.39 140.13 131.23 133.25 131.23 133.25 141.73"/>
    <polygon class="cls-2" points="149.71 131.23 146.16 140.3 142.62 131.23 141.13 131.23 145.34 141.73 146.97 141.73 151.21 131.23 149.71 131.23"/>
    <path class="cls-2" d="M-321.35,250.11l-4.23,10.5h1.5l.93-2.33h5.23l.93,2.33h1.5l-4.24-10.5Zm-1.42,7,2.23-5.66,2.23,5.66Z" transform="translate(476.21 -118.88)"/>
    <polygon class="cls-2" points="169.48 139.43 163.43 131.23 162.09 131.23 162.09 141.73 163.4 141.73 163.4 133.35 169.52 141.73 170.78 141.73 170.78 131.23 169.48 131.23 169.48 139.43"/>
    <path class="cls-2" d="M-299.84,250.11l-4.22,10.5h1.5l.93-2.33h5.23l.92,2.33h1.5l-4.24-10.5Zm-1.42,7,2.24-5.66,2.22,5.66Z" transform="translate(476.21 -118.88)"/>
    <polygon class="cls-2" points="191.05 135.75 184.91 135.75 184.91 131.23 183.6 131.23 183.6 141.73 184.91 141.73 184.91 136.91 191.05 136.91 191.05 141.73 192.36 141.73 192.36 131.23 191.05 131.23 191.05 135.75"/>
    <path class="cls-2" d="M-278.26,250.11l-4.22,10.5H-281l.94-2.33h5.23l.92,2.33h1.5l-4.24-10.5Zm-1.42,7,2.24-5.66,2.22,5.66Z" transform="translate(476.21 -118.88)"/>
    <polygon class="cls-2" points="206.49 131.23 205.18 131.23 205.18 141.73 211.37 141.73 211.37 140.57 206.49 140.57 206.49 131.23"/>
    <polygon class="cls-2" points="214.52 131.23 213.21 131.23 213.21 141.73 219.4 141.73 219.4 140.57 214.52 140.57 214.52 131.23"/>
    <rect class="cls-2" x="221.25" y="131.23" width="1.31" height="10.51"/>
  </g>
</svg>
