<svg xmlns="http://www.w3.org/2000/svg" xmlns:xlink="http://www.w3.org/1999/xlink" width="369.4859" height="141.47419" viewBox="0 0 369.4859 141.47419">
  <defs>
    <clipPath id="clip-path">
      <path d="M330.9032,8.7582a4.17092,4.17092,0,0,0-.3877,1.7752V35.81329C341.1515,17.1111,359.2374,10.6264,363.943,2.382V2.3781A70.9275,70.9275,0,0,0,347.7525.002c-7.1475,0-13.7291,2.0234-16.8493,8.7562" fill="none"/>
    </clipPath>
    <linearGradient id="linear-gradient" x1="-104.9718" y1="1090.8154" x2="-101.0957" y2="1090.8154" gradientTransform="matrix(-11.3464, 0, 0, 11.3464, -825.95903, -12358.92018)" gradientUnits="userSpaceOnUse">
      <stop offset="0" stop-color="#faae43"/>
      <stop offset="0.93356" stop-color="#338d44"/>
      <stop offset="1" stop-color="#338d44"/>
    </linearGradient>
    <clipPath id="clip-path-2">
      <path d="M301.7432,35.42179a4.20319,4.20319,0,0,0,1.7753.3915h25.2876C310.1001,25.1773,303.6154,7.0876,295.371,2.382c-2.7094,11.1399-5.539,27.51639,6.3722,33.03979" fill="none"/>
    </clipPath>
    <linearGradient id="linear-gradient-2" x1="-187.89582" y1="1199.08529" x2="-184.0197" y2="1199.08529" gradientTransform="matrix(0, 11.3464, 11.3464, 0, -13295.98229, 2133.17391)" gradientUnits="userSpaceOnUse">
      <stop offset="0" stop-color="#8bc541"/>
      <stop offset="0.93356" stop-color="#338d44"/>
      <stop offset="1" stop-color="#338d44"/>
    </linearGradient>
    <clipPath id="clip-path-3">
      <path d="M295.3787,70.93847v.01942c11.1361,2.7055,27.5125,5.535,33.036-6.3801a4.17192,4.17192,0,0,0,.3914-1.7714V37.52269c-10.632,18.6905-28.7062,25.1791-33.4274,33.41578" fill="none"/>
    </clipPath>
    <linearGradient id="linear-gradient-3" x1="-80.19461" y1="1275.74594" x2="-76.31853" y2="1275.74594" gradientTransform="matrix(12.144, 0, 0, -12.144, 1268.10671, 15549.66652)" gradientUnits="userSpaceOnUse">
      <stop offset="0" stop-color="#ee4138"/>
      <stop offset="0.99918" stop-color="#7a1316"/>
      <stop offset="1" stop-color="#7a1316"/>
    </linearGradient>
    <clipPath id="clip-path-4">
      <path d="M330.5155,37.52269c18.7022,10.636,25.187,28.7257,33.4275,33.4313,2.7133-11.1399,5.5429-27.5203-6.3723-33.0398a4.18931,4.18931,0,0,0-1.7753-.3915Z" fill="none"/>
    </clipPath>
    <linearGradient id="linear-gradient-4" x1="3.48193" y1="1173.60249" x2="7.35804" y2="1173.60249" gradientTransform="matrix(0, -11.3414, -11.3414, 0, 13660.29598, 111.59247)" gradientUnits="userSpaceOnUse">
      <stop offset="0" stop-color="#faae43"/>
      <stop offset="0.93315" stop-color="#ee4138"/>
      <stop offset="1" stop-color="#ee4138"/>
    </linearGradient>
  </defs>
  <g id="Layer_2" data-name="Layer 2">
    <g id="Layer_1-2" data-name="Layer 1">
      <g>
        <polygon points="0 56.94 0 0 9.105 0 9.206 38.366 38.428 0.101 43.432 0.101 23.567 26.067 44.78 55.587 33.575 55.587 17.563 33.974 0 56.94" fill="#231f20"/>
        <g>
          <path d="M67.046,54.08869c7.9072,0,8.9576-10.26,8.9576-16.0625,0-5.95372-1.0504-16.61289-8.9576-16.61289-7.3064,0-9.0546,10.81039-9.0546,16.61289,0,5.9537,1.6009,16.0625,9.0546,16.0625M48.4834,38.02619c0-11.9578,6.756-19.46579,18.5626-19.46579,11.7097,0,18.4657,7.60879,18.4657,19.46579,0,11.0081-6.8064,18.91528-18.4657,18.91528-11.7562,0-18.5626-7.80638-18.5626-18.91528" fill="#231f20"/>
          <path d="M92.5635,19.9132l7.2561,4.004h.748c2.5544-3.7521,6.256-5.4033,10.7601-5.4033,8.0545,0,13.9074,4.0002,13.9074,12.55857V55.58879h-9.105V30.57239c0-4.2055-1.9031-9.008-6.8064-9.008-5.0505,0-7.6552,4.95359-7.6552,9.45769v24.5667h-9.105Z" fill="#231f20"/>
          <path d="M130.7892,38.52659c.1008-12.76012,9.3569-20.01619,21.617-20.01619,4.6513,0,9.9073,1.5544,12.357,4.6048v6.60489c-2.6513-4.55439-7.0041-7.95379-11.9074-7.85679-8.8065.2519-12.6089,8.35679-12.8608,16.16329a18.50624,18.50624,0,0,0,2.6512,9.85688,12.20315,12.20315,0,0,0,9.9577,5.756c4.756.19772,9.1592-2.75588,12.8105-9.05848v6.4537a22.01494,22.01494,0,0,1-15.5625,5.9537,21.35281,21.35281,0,0,1-12.9578-4.2017c-5.2056-4.0543-6.1553-10.1553-6.1049-14.2601" fill="#231f20"/>
          <path d="M197.034,34.37339c0-4.4537-1.8024-13.00819-7.5545-13.00819-2.6008,0-5.004,2.0505-6.5041,4.004a20.16783,20.16783,0,0,0-3.2017,9.00419Zm-7.5545-15.861c10.5585,0,16.7602,8.20569,16.7602,18.26407v.39932H179.5722a11.65839,11.65839,0,0,0-.0504,1.3023c0,7.6049,3.6513,15.15938,12.2097,15.15938,6.0041,0,10.9073-4.10468,13.8106-9.05448v6.9537c-4.1048,4.0505-10.7097,5.4537-16.3145,5.4537-11.4074,0-19.3108-6.7561-19.3108-18.46192,0-12.41118,6.9538-20.01607,19.5627-20.01607" fill="#231f20"/>
          <path d="M221.2526,28.11969v19.5626a9.45475,9.45475,0,0,0,8.6554,5.9537c7.7057,0,9.508-9.7057,9.508-15.7098,0-6.6049-2.2016-15.861-10.4112-15.861-3.8024,0-6.4537,2.7016-7.7522,6.05449M212.295,82.009l.0503-63.49819,8.2058,4.8568h.7519c2.5001-3.5544,6.9034-4.8568,11.1051-4.8568a17.18689,17.18689,0,0,1,11.7096,4.5544c3.8025,3.65519,4.9033,9.20579,4.9033,14.26019,0,11.50808-6.0545,19.613-18.113,19.613a15.04461,15.04461,0,0,1-9.508-3.60092V82.009Z" fill="#231f20"/>
          <path d="M252.7723,20.0636h3.2016l9.0585-11.0585V20.0636h7.2521V22.866h-7.2521c0,7.40329.0503,14.861.0503,22.26429,0,3.1047-.1511,8.65918,4.2017,8.65918,3.0505,0,4.5041-4.30638,5.3529-6.85678v7.1552c-2.2016,2.2521-5.4537,2.8529-8.4538,2.8529-7.3568,0-10.2096-5.1049-10.2096-11.8609V22.866h-3.2016Z" fill="#231f20"/>
          <path d="M60.2629,139.92869v-39.3385l8.0002,4.4149h.8256c2.814-4.1397,6.8995-5.9575,11.8648-5.9575,5.4614,0,10.7019,1.4884,13.3492,6.6746,2.7598-4.7443,7.2832-6.6746,12.6361-6.6746,8.884,0,15.3377,4.41088,15.3377,13.8454v27.0357h-10.043v-27.5861c0-4.6358-2.097-9.9306-7.5041-9.9306-5.57,0-8.4382,5.4614-8.4382,10.4267v27.09H86.2482v-27.5861c0-4.6358-2.097-9.9306-7.5041-9.9306-5.57,0-8.4383,5.4614-8.4383,10.4267v27.09Z" fill="#231f20"/>
          <path d="M139.3487,131.21259a10.42859,10.42859,0,0,0,9.543,6.5661c8.4964,0,10.4849-10.7058,10.4849-17.32622,0-7.33738-2.4303-17.48888-11.4772-17.48888-4.1939,0-7.1165,2.9226-8.5507,6.6746Zm-10.0429-57.2849h10.0429v30.47c2.8141-3.973,7.667-5.3528,12.3028-5.3528a19.21614,19.21614,0,0,1,12.9074,5.0234c4.1939,4.02718,5.4071,10.1515,5.4071,15.7214,0,12.6904-6.6746,21.6286-19.9696,21.6286-4.6358,0-9.6011-2.0969-12.2485-5.9575h-.8295l-7.6126,5.9575Z" fill="#231f20"/>
          <path d="M186.4112,139.92839h-10.043V100.75647h10.043Zm-5.0196-55.3042a5.80426,5.80426,0,0,1,5.7366,5.7366,5.88935,5.88935,0,0,1-5.7366,5.7948,5.76577,5.76577,0,1,1,0-11.5314" fill="#231f20"/>
          <path d="M222.7201,116.53529c0-4.911-1.9846-14.3454-8.3297-14.3454-2.8684,0-5.5157,2.2637-7.1708,4.4149-1.9303,2.5931-3.035,6.3452-3.5311,9.9305Zm-8.3297-17.4889c11.6399,0,18.4812,9.0468,18.4812,20.1363v.4419H203.4675a13.20933,13.20933,0,0,0-.0542,1.4342c0,8.3878,4.0272,16.7176,13.4616,16.7176,6.6204,0,12.0275-4.5235,15.2253-9.98492v7.66692c-4.5234,4.4692-11.8065,6.0158-17.9851,6.0158-12.5779,0-21.2952-7.4499-21.2952-20.3573,0-13.6826,7.6669-22.0705,21.5705-22.0705" fill="#231f20"/>
          <path d="M240.0412,100.59139l8.0003,4.4149h.8295c2.8101-4.1397,6.8955-5.9615,11.8608-5.9615,8.8801,0,15.3378,4.4149,15.3378,13.8493v27.0358h-10.043v-27.5862c0-4.6358-2.0971-9.9305-7.5042-9.9305-5.5699,0-8.4382,5.4614-8.4382,10.4267v27.09h-10.043Z" fill="#231f20"/>
          <path d="M282.6632,121.11529c.1085-14.0702,10.3181-22.0704,23.8341-22.0704,5.132,0,10.9228,1.7132,13.6283,5.07758v7.28322c-2.9265-5.0195-7.725-8.7716-13.1322-8.6631-9.7096.2752-13.9036,9.2135-14.1787,17.8223a20.44879,20.44879,0,0,0,2.9225,10.86858,13.45315,13.45315,0,0,0,10.9811,6.34522c5.2404.2209,10.0971-3.035,14.1244-9.9887v7.1204a24.275,24.275,0,0,1-17.1595,6.5622,23.56342,23.56342,0,0,1-14.2911-4.6319c-5.7367-4.46922-6.7832-11.2019-6.7289-15.7254" fill="#231f20"/>
          <path d="M356.1795,116.53529c0-4.911-1.9845-14.3454-8.3297-14.3454-2.8683,0-5.5157,2.2637-7.1708,4.4149-1.9303,2.5931-3.035,6.3452-3.5311,9.9305Zm-8.3297-17.4889c11.6399,0,18.4812,9.0468,18.4812,20.1363v.4419H336.9269a13.20933,13.20933,0,0,0-.0542,1.4342c0,8.3878,4.0272,16.7176,13.4617,16.7176,6.6204,0,12.0275-4.5235,15.2252-9.98492v7.66692c-4.5234,4.4692-11.8065,6.0158-17.985,6.0158-12.5779,0-21.2952-7.4499-21.2952-20.3573,0-13.6826,7.6669-22.0705,21.5704-22.0705" fill="#231f20"/>
        </g>
        <path d="M18.2018,123.49019,39.6405,95.41947l.0698,28.07072ZM.0229,139.71169H5.8138l10.0313-13.1361H39.7218l.0311,13.2524H50.2958V73.915Z" fill="#231f20"/>
        <path d="M363.9457,2.3804h0C352.8096-.329,336.4292-3.15853,330.9019,8.7566a4.23207,4.23207,0,0,0-.3876,1.7753V35.81179h25.2798a4.23029,4.23029,0,0,0,1.7753-.3877c11.9152-5.5272,9.0856-21.90762,6.3763-33.04369" fill="#faaf43"/>
        <g clip-path="url(#clip-path)">
          <rect x="330.5154" y="0.002" width="33.4274" height="35.8113" fill="url(#linear-gradient)"/>
        </g>
        <path d="M295.371,2.3804h0c-2.7094,11.13607-5.539,27.51649,6.3762,33.04369a4.22984,4.22984,0,0,0,1.7752.3877h25.2799V10.5319a4.23207,4.23207,0,0,0-.3876-1.7753C322.8874-3.15853,306.507-.329,295.371,2.3804" fill="#86c442"/>
        <g clip-path="url(#clip-path-2)">
          <rect x="289.832" y="2.382" width="38.9741" height="33.4314" fill="url(#linear-gradient-2)"/>
        </g>
        <path d="M295.371,70.95479h0c11.136,2.7094,27.5164,5.5389,33.0437-6.3762a4.23162,4.23162,0,0,0,.3876-1.7752V37.52347H303.5224a4.22977,4.22977,0,0,0-1.7752.38762c-11.9152,5.5273-9.0856,21.9077-6.3762,33.0437" fill="#f05a2c"/>
        <g clip-path="url(#clip-path-3)">
          <rect x="295.3787" y="37.52269" width="33.4274" height="38.9702" fill="url(#linear-gradient-3)"/>
        </g>
        <path d="M363.9457,70.95479h0c2.7093-11.136,5.5389-27.5164-6.3763-33.0437a4.23022,4.23022,0,0,0-1.7753-.38762H330.5143V62.80339a4.23162,4.23162,0,0,0,.3876,1.7752c5.5273,11.9151,21.9077,9.0856,33.0438,6.3762" fill="#f69320"/>
        <g clip-path="url(#clip-path-4)">
          <rect x="330.5155" y="37.52269" width="38.9704" height="33.4313" fill="url(#linear-gradient-4)"/>
        </g>
      </g>
    </g>
  </g>
</svg>
