<svg fill="none" height="38" width="222" xmlns="http://www.w3.org/2000/svg"><g fill="#58595b"><path d="M72.172 32.23c-.222-.221-.554-.388-.998-.61 1.165-.166 2.052-.555 2.662-1.165.555-.61.833-1.331.833-2.219a3.69 3.69 0 0 0-.5-1.886 2.824 2.824 0 0 0-1.387-1.165c-.554-.222-1.386-.333-2.496-.333h-5.492v12.371h1.664v-5.492h1.887c.443 0 .72 0 .887.056.277.055.5.166.777.332.222.167.5.444.832.833.333.388.721.943 1.165 1.72l1.609 2.551h2.052l-2.163-3.384c-.389-.61-.832-1.165-1.332-1.609zm-2.219-1.886h-3.495V26.24h3.94c.887 0 1.608.167 1.996.555.444.388.61.832.61 1.442a2 2 0 0 1-.332 1.11c-.222.333-.555.61-.943.72-.444.223-1.054.278-1.776.278zM80.715 28.125c-1.22 0-2.219.444-3.05 1.22-.777.833-1.166 2.053-1.166 3.496 0 1.442.389 2.607 1.165 3.384.777.832 1.83 1.22 3.107 1.22 1.054 0 1.886-.277 2.552-.777s1.11-1.22 1.387-2.108l-1.554-.222c-.222.666-.555 1.11-.943 1.387a2.472 2.472 0 0 1-1.442.444 2.641 2.641 0 0 1-1.886-.777c-.5-.499-.777-1.275-.832-2.274h6.657v-.388c0-1.498-.389-2.608-1.166-3.44-.61-.776-1.553-1.165-2.829-1.165zm-2.496 3.828c.056-.777.333-1.387.777-1.886.499-.444 1.054-.721 1.775-.721.776 0 1.387.277 1.886.887.333.389.5.943.555 1.72zM93.918 33.506V31.51c0-.665 0-1.165-.055-1.387-.111-.443-.222-.776-.444-1.054s-.555-.499-1.054-.665c-.5-.167-1.11-.278-1.886-.278-.777 0-1.442.111-2.053.333s-1.054.5-1.331.888c-.333.388-.555.887-.666 1.553l1.498.222c.166-.666.444-1.11.777-1.331.333-.222.887-.389 1.553-.389.777 0 1.331.167 1.72.5.277.277.443.665.443 1.33v.39c-.554.221-1.497.388-2.718.498-.61.056-1.054.167-1.331.222a4.007 4.007 0 0 0-1.11.5c-.332.221-.61.499-.776.887-.222.388-.278.777-.278 1.22 0 .722.278 1.387.777 1.831.5.444 1.276.721 2.275.721.61 0 1.164-.11 1.664-.277a7.503 7.503 0 0 0 1.608-.999c.056.444.167.777.278 1.11h1.609c-.167-.333-.333-.721-.389-1.054-.055-.333-.11-1.331-.11-2.774zm-1.498-.166c0 .666-.055 1.165-.221 1.498-.222.444-.555.776-.999 1.054-.444.277-.998.388-1.553.388-.555 0-1.054-.111-1.332-.388-.277-.278-.443-.61-.443-.999 0-.277.055-.5.222-.721s.332-.388.61-.5c.277-.11.72-.221 1.331-.277 1.11-.166 1.942-.332 2.497-.554v.499zM97.746 24.908h-1.498v12.37h1.498zM106.788 31.62h6.879v-1.498h-6.879V26.35h7.323v-1.442h-8.931v12.37h9.208v-1.497h-7.6zM121.933 32.508c-.444-.167-1.165-.444-2.275-.721-.721-.222-1.22-.333-1.331-.389-.277-.11-.444-.222-.555-.388s-.166-.333-.166-.555c0-.333.166-.554.444-.832.277-.222.776-.333 1.498-.333.61 0 1.054.111 1.386.389.333.277.5.61.611 1.054l1.497-.222c-.111-.555-.277-1.054-.499-1.387-.222-.333-.666-.61-1.165-.832-.555-.222-1.165-.278-1.83-.278-.444 0-.888.056-1.332.167a2.995 2.995 0 0 0-.943.444c-.333.221-.555.499-.777.832a2.53 2.53 0 0 0-.277 1.11c0 .443.111.831.333 1.22.222.388.555.665.998.832.444.222 1.221.444 2.33.721.833.222 1.332.388 1.554.5.277.166.443.443.443.831 0 .389-.166.722-.499.999s-.887.444-1.553.444-1.221-.167-1.609-.5-.61-.776-.721-1.386l-1.498.221c.167.944.555 1.665 1.165 2.164.61.5 1.498.721 2.663.721.721 0 1.331-.11 1.886-.388s.999-.61 1.276-1.054.444-.888.444-1.443c0-.554-.111-.943-.389-1.275a9.656 9.656 0 0 0-1.109-.666zM128.423 35.892c-.277.055-.499.055-.665.055-.222 0-.389-.055-.5-.11a.665.665 0 0 1-.277-.278c-.055-.111-.055-.388-.055-.832v-5.27h1.553v-1.165h-1.553v-3.107l-1.498.888v2.219h-1.11v1.165h1.11v5.159c0 .887.055 1.498.166 1.775s.333.5.666.666.721.277 1.276.277c.333 0 .721-.056 1.165-.111zM137.188 33.506V31.51c0-.665-.055-1.165-.055-1.387-.111-.443-.222-.776-.499-1.054-.222-.277-.555-.499-1.054-.665-.5-.167-1.11-.278-1.886-.278-.777 0-1.443.111-2.053.333s-1.054.5-1.331.888c-.333.388-.555.887-.666 1.553l1.498.222c.166-.666.444-1.11.776-1.331.333-.222.888-.389 1.554-.389.776 0 1.331.167 1.719.5.278.277.444.665.444 1.33v.39c-.555.221-1.498.388-2.718.498-.61.056-1.054.167-1.332.222-.388.111-.776.278-1.109.5s-.61.499-.777.887c-.222.388-.277.777-.277 1.22 0 .722.277 1.387.777 1.831.499.5 1.276.721 2.274.721.61 0 1.165-.11 1.664-.277a7.491 7.491 0 0 0 1.609-.999c.056.444.167.777.277 1.11h1.609c-.166-.333-.333-.721-.388-1.054-.056-.333-.056-1.331-.056-2.774zm-1.553-.166c0 .666-.111 1.165-.222 1.498-.222.444-.555.776-.998 1.054-.444.277-.999.388-1.554.388-.554 0-1.054-.111-1.331-.388-.277-.278-.444-.61-.444-.999 0-.277.056-.5.222-.721.167-.222.333-.388.61-.5.278-.11.722-.221 1.332-.277 1.109-.166 1.941-.332 2.496-.554v.499zM142.847 35.892c-.278.055-.499.055-.666.055-.222 0-.388-.055-.499-.11a.673.673 0 0 1-.278-.278c-.055-.111-.055-.388-.055-.832v-5.27h1.553v-1.165h-1.553v-3.107l-1.498.888v2.219h-1.109v1.165h1.109v5.159c0 .887.056 1.498.167 1.775s.332.5.665.666c.278.166.721.277 1.276.277.333 0 .721-.056 1.165-.111zM152.111 32.785c0-1.498-.388-2.607-1.109-3.44-.777-.831-1.72-1.22-2.941-1.22-1.22 0-2.274.444-3.051 1.22-.776.833-1.165 2.053-1.165 3.496 0 1.442.389 2.607 1.165 3.384.777.832 1.775 1.22 3.107 1.22 1.054 0 1.886-.277 2.552-.777.665-.499 1.109-1.22 1.387-2.108l-1.554-.222c-.222.666-.554 1.11-.943 1.387a2.47 2.47 0 0 1-1.442.444 2.641 2.641 0 0 1-1.886-.777c-.5-.499-.777-1.275-.832-2.274h6.657c.055-.111.055-.277.055-.333zm-6.601-.832c.055-.777.332-1.387.776-1.886a2.468 2.468 0 0 1 1.775-.721c.777 0 1.387.277 1.887.887.332.389.499.943.554 1.72z"/></g><path d="M84.931 4.493c-.72 0-1.386.111-1.886.389-.554.222-1.054.665-1.609 1.22V.777h-3.994V15.2h3.994v-5.048c0-.943.167-1.609.444-1.997.278-.389.666-.555 1.165-.555.444 0 .777.11.999.388s.388.721.388 1.387v5.77h3.994V8.488c0-1.387-.332-2.386-.943-3.052-.61-.61-1.442-.943-2.552-.943zM129.2 4.493c-1.831 0-3.273.5-4.327 1.553a5.378 5.378 0 0 0-1.387 2.275 5.783 5.783 0 0 0-1.054-1.997c-1.054-1.22-2.663-1.83-4.715-1.83-1.831 0-3.273.498-4.327 1.552a4.604 4.604 0 0 0-1.332 2.22c-.166-.777-.499-1.498-.943-2.164-.776-1.054-1.83-1.609-3.217-1.609-.721 0-1.332.167-1.942.444-.444.222-.887.666-1.442 1.331V4.715h-3.717v14.423h4.05v-4.992c.388.443.832.72 1.387.943a4.052 4.052 0 0 0 1.664.333c1.276 0 2.33-.444 3.162-1.387.499-.555.887-1.332 1.054-2.22.277.888.832 1.665 1.609 2.33 1.054.833 2.385 1.277 4.049 1.277 1.886 0 3.329-.5 4.438-1.554a5.368 5.368 0 0 0 1.387-2.274c.277.998.832 1.83 1.664 2.552 1.054.832 2.386 1.276 4.05 1.276 1.886 0 3.328-.5 4.438-1.554 1.054-.998 1.609-2.33 1.609-3.938 0-1.443-.444-2.663-1.276-3.606-1.165-1.22-2.774-1.83-4.882-1.83zm-21.469 7.378c-.332.389-.721.555-1.165.555-.554 0-.998-.222-1.331-.61s-.499-.999-.499-1.83c0-.888.166-1.554.499-1.942s.777-.61 1.276-.61.888.221 1.22.61c.333.388.5.998.5 1.886-.056.887-.222 1.553-.5 1.941zm11.428.167c-.388.443-.832.665-1.387.665-.554 0-1.054-.222-1.442-.665s-.555-1.11-.555-2.053c0-.943.167-1.609.555-2.052a1.868 1.868 0 0 1 1.442-.666c.555 0 .999.222 1.387.666.388.443.555 1.11.555 2.052 0 .943-.222 1.664-.555 2.053zm11.539 0c-.388.443-.832.665-1.387.665s-1.054-.222-1.442-.665c-.389-.444-.555-1.11-.555-2.053 0-.943.222-1.609.555-2.052.388-.444.832-.666 1.442-.666.555 0 .999.222 1.387.666.388.443.555 1.11.555 1.997 0 .998-.222 1.664-.555 2.108zM74.89 6.768c-.831-.444-2.218-.832-4.16-1.276-.777-.167-1.276-.333-1.498-.555-.222-.166-.333-.388-.333-.61 0-.333.111-.61.389-.777.277-.222.665-.333 1.165-.333.61 0 1.11.167 1.442.444.388.278.61.777.721 1.443l4.216-.222c-.166-1.498-.776-2.608-1.72-3.273C74.17.943 72.728.61 70.897.61c-1.497 0-2.662.167-3.55.555-.832.388-1.498.887-1.941 1.553-.444.666-.666 1.332-.666 2.108 0 1.11.444 2.053 1.276 2.774s2.219 1.331 4.16 1.72c1.165.277 1.942.554 2.275.832.333.277.499.61.499.998 0 .389-.166.721-.5 1.054-.332.278-.831.444-1.497.444-.832 0-1.498-.277-1.942-.888-.277-.332-.443-.887-.554-1.553l-4.216.278c.11 1.442.665 2.662 1.608 3.605.943.944 2.663 1.387 5.104 1.387 1.387 0 2.552-.222 3.44-.61.942-.388 1.608-.999 2.163-1.775.5-.777.777-1.609.777-2.552 0-.777-.167-1.498-.555-2.163-.389-.666-.999-1.165-1.886-1.61z" fill="#034ea2"/><path d="M99.965 12.98V8.377c0-.499-.11-.998-.277-1.553-.222-.555-.444-.943-.832-1.276-.5-.444-1.11-.721-1.831-.832a18.463 18.463 0 0 0-2.885-.222c-.72 0-1.442.056-2.108.167s-1.165.277-1.498.443c-.499.278-.887.61-1.164.999-.278.388-.5.888-.61 1.553l3.827.389c.166-.444.388-.777.61-.944.333-.221.832-.332 1.498-.332.5 0 .888.11 1.054.277.222.222.277.555.277 1.054-.499.166-.998.333-1.386.5-.444.11-1.443.332-2.94.665-1.221.222-2.109.61-2.552 1.11a2.882 2.882 0 0 0-.722 1.941c0 .832.333 1.553.944 2.108.665.555 1.608.888 2.829.888.943 0 1.775-.167 2.44-.444a5.142 5.142 0 0 0 1.554-1.054c.055.277.11.5.11.666.056.166.167.332.278.61h3.772c-.221-.444-.332-.777-.388-1.054-.055-.278 0-.555 0-1.054zm-3.883-2.107c0 .499-.056.887-.222 1.22-.167.333-.444.555-.832.777a2.529 2.529 0 0 1-1.22.333c-.444 0-.777-.111-1-.278-.221-.222-.332-.444-.332-.776 0-.278.111-.5.333-.721s.721-.444 1.553-.61c.61-.167 1.165-.334 1.72-.5zM143.346 4.937c-.61-.277-1.22-.444-1.72-.444-.554 0-1.054.111-1.442.444-.388.277-.777.777-1.11 1.553V4.77h-3.716V15.2h3.994v-3.495c0-1.664.222-2.83.61-3.44.277-.443.666-.665 1.22-.665.278 0 .666.11 1.11.277l1.054-2.33v8.987c0 .666-.111 1.165-.277 1.387-.167.222-.444.333-.777.333-.166 0-.388 0-.721-.111l-.61 2.884c1.165.222 2.108.333 2.884.333.943 0 1.664-.166 2.164-.499a2.915 2.915 0 0 0 1.054-1.276c.166-.555.277-1.442.277-2.774V4.715h-3.994zM147.34.777h-3.994V3.55h3.994zM152.167.777h-3.995v2.718h3.995zM152.167 4.715h-3.995v10.43h3.995z" fill="#034ea2"/><path d="M167.755 1.664C166.978.888 165.758.5 164.149.5h-7.378v14.424h4.438V9.597h2.441c1.775 0 3.106-.388 3.994-1.22.887-.832 1.331-1.997 1.331-3.44 0-1.442-.444-2.496-1.22-3.273zm-3.662 4.55c-.332.277-.943.443-1.775.443h-1.109V3.439h1.276c.832 0 1.387.167 1.719.444.278.333.444.666.444 1.165-.055.5-.222.888-.555 1.165zM184.453.5h-3.995v14.423h3.995z" fill="#0089cf"/><path d="M179.793 12.703V8.1c0-.5-.111-.999-.278-1.553-.221-.555-.443-.943-.832-1.276-.499-.444-1.109-.721-1.83-.832s-1.665-.222-2.885-.222c-.721 0-1.442.055-2.108.166-.61.111-1.165.278-1.498.5-.499.277-.887.61-1.165.998-.277.388-.499.888-.61 1.609l3.828.388c.166-.444.388-.777.61-.943.333-.222.832-.333 1.442-.333.5 0 .888.111 1.054.278.222.221.278.554.278 1.054-.5.166-.943.332-1.387.499-.444.11-1.443.333-2.94.61-1.276.222-2.108.61-2.552 1.165-.444.5-.666 1.165-.666 1.942 0 .832.333 1.553.943 2.163.666.555 1.609.888 2.829.888.943 0 1.776-.167 2.441-.444a5.145 5.145 0 0 0 1.554-1.054c.055.277.111.555.111.666.055.11.166.332.277.61h3.772c-.222-.444-.333-.777-.388-1.054v-1.22zm-4.161-.887c-.166.333-.444.555-.832.776s-.832.333-1.22.333c-.444 0-.777-.11-.999-.277-.222-.222-.333-.444-.333-.777 0-.277.111-.499.333-.72s.721-.445 1.553-.667c.611-.166 1.165-.332 1.72-.499v.61c0 .5-.055.943-.222 1.22zM189.224.5h-3.995v14.423h3.995zM217.127.5h-3.994v2.773h3.994zM221.953 4.493h-3.994v10.43h3.994zM221.953.5h-3.994v2.718h3.994zM195.381 4.271c-1.831 0-3.273.5-4.327 1.554-1.054.998-1.609 2.33-1.609 3.938 0 1.72.611 3.107 1.886 4.16 1.054.833 2.386 1.277 4.05 1.277 1.886 0 3.329-.5 4.438-1.554 1.054-1.054 1.609-2.33 1.609-3.938 0-1.443-.444-2.663-1.276-3.606-1.11-1.22-2.663-1.83-4.771-1.83zm1.442 7.545c-.388.444-.832.665-1.386.665a1.87 1.87 0 0 1-1.443-.665c-.388-.444-.555-1.11-.555-2.053 0-.887.222-1.609.555-2.052.389-.444.832-.666 1.443-.666.554 0 .998.222 1.386.666.389.443.555 1.11.555 1.997.056.943-.166 1.664-.555 2.108zM213.133 4.493v9.764c0 .665-.111 1.165-.277 1.387-.167.221-.444.332-.777.332-.166 0-.388 0-.721-.11l-.61 2.884c1.165.222 2.108.333 2.884.333.943 0 1.664-.166 2.164-.5.499-.332.832-.776 1.054-1.33.166-.555.277-1.443.277-2.719V4.494z" fill="#0089cf"/><path d="M212.523 14.922V8.265c0-1.386-.333-2.385-.943-3.05-.611-.666-1.498-1-2.608-1-.832 0-1.497.167-2.108.445-.554.277-1.109.776-1.664 1.497v-1.72h-3.717v10.43h3.994V9.874c0-.943.167-1.609.444-1.997.278-.388.666-.555 1.165-.555.444 0 .777.111 1.054.389.222.277.333.72.333 1.387v5.769h4.05z" fill="#0089cf"/><path clip-rule="evenodd" d="m1.11 28.126 13.036.665s6.712-2.052 6.823-2.496c.111-.444-.11-6.823-.11-6.823z" fill="#bebdbf" fill-rule="evenodd"/><path clip-rule="evenodd" d="M0 38h12.26l12.648-3.661 3.828 2.052 5.547-1.553-.055-5.88 17.752-.832-18.806-7.49.222-.61 16.365 3.55.776-5.047L28.015.61l-.944.444-.943-.444-17.64 14.923-3.495 2.885-.056 4.992 7.878-3.716 7.378 1.997 3.384 7.1-.61.61-21.08 5.825z" fill="#d1d3d4" fill-rule="evenodd"/><path clip-rule="evenodd" d="m49.65 18.473-8.82.222 9.208 4.105zM5.16 18.584l8.487.222-8.876 4.05z" fill="#fff" fill-rule="evenodd"/><path d="M47.763 19.194c0-.388-.11-.721-.388-.943-.277-.277-.999-.61-1.387-.777L27.127 7.101V0c7.766 4.216 17.64 9.542 24.464 13.258 1.332.666 2.33 2.22 2.386 4.438.055 2.275.11 5.104 0 7.378-.056 1.443-.61 2.497-1.332 2.885-.555.222-1.11.444-3.051-.277l-14.423-5.603c-.999-.389-.888.61-.888 1.054v11.705l-5.104-3.162c-.554-.333-1.165-.777-1.165-2.33V16.42c.056-2.995 1.61-3.162 4.55-2.052l14.423 6.324c.554.166.776-.222.776-.5.056-.554 0-.554 0-.998z" fill="#0089cf"/><path d="m0 31.343 18.362-6.49c.388-.167.777-.278 1.165-.444.333-.111.555-.278.555-.666v-1.276c.055-.61-.278-.832-1.11-.5L3.883 27.849c-1.331.444-2.33.444-2.884.277-.833-.277-.944-1.275-.944-2.995 0-1.83-.055-3.994 0-6.102 0-1.054.167-2.164.61-3.107.389-.777 1.166-1.442 1.942-1.941.5-.389 1.054-.722 1.498-1.055L27.071 0l.111 7.156-19.97 11.206c-.444.277-.943.444-.943.888v1.22c0 .222.166.5.776.277l14.645-6.601c1.332-.555 4.716-1.22 4.55 3.273v8.765c-.112 1.276.277 3.495-2.774 4.604L0 38zM54.809 11.261h.333c.166 0 .277-.055.332-.055.056-.056.111-.111.111-.222 0-.056 0-.111-.055-.166l-.111-.111c-.055-.055-.166-.056-.277-.056h-.333zm-.333.999v-1.775h.61c.222 0 .333 0 .444.055.11.056.166.111.222.167.055.11.055.166.055.277 0 .11-.055.222-.166.333a.503.503 0 0 1-.388.166c.055.056.11.056.166.111s.166.167.277.333l.222.333h-.333l-.166-.277c-.111-.222-.222-.389-.333-.444-.055-.056-.11-.056-.222-.056h-.166v.777zm.777-2.33c-.222 0-.444.055-.666.166-.222.111-.388.278-.5.5-.11.221-.166.443-.166.665 0 .222.056.444.167.666.11.222.277.388.499.5.222.11.444.166.666.166s.499-.056.665-.167c.222-.11.389-.277.5-.499.11-.222.166-.444.166-.666 0-.222-.056-.444-.166-.665a1.089 1.089 0 0 0-.5-.5 1.477 1.477 0 0 0-.665-.166zm0-.277c.277 0 .554.055.832.221.277.167.499.333.61.61.166.278.222.555.222.833s-.056.555-.222.832a1.612 1.612 0 0 1-.61.61c-.278.167-.555.222-.832.222s-.555-.055-.833-.222c-.277-.166-.499-.333-.61-.61-.11-.277-.222-.555-.222-.832s.056-.555.222-.832a1.61 1.61 0 0 1 .61-.61c.278-.167.5-.222.833-.222z" fill="#034ea2"/></svg>